<svg xmlns="http://www.w3.org/2000/svg" xmlns:xlink="http://www.w3.org/1999/xlink" width="500" zoomAndPan="magnify" viewBox="0 0 375 374.999991" height="500" preserveAspectRatio="xMidYMid meet" version="1.0"><defs><g/><clipPath id="8eb3696823"><path d="M 60.289062 168.183594 L 109.207031 168.183594 L 109.207031 217.101562 L 60.289062 217.101562 Z M 60.289062 168.183594 " clip-rule="nonzero"/></clipPath><clipPath id="ef142d25ae"><path d="M 73.449219 168.183594 L 96.046875 168.183594 C 96.910156 168.183594 97.765625 168.265625 98.613281 168.433594 C 99.460938 168.605469 100.285156 168.851562 101.082031 169.183594 C 101.878906 169.515625 102.640625 169.921875 103.355469 170.398438 C 104.074219 170.878906 104.742188 171.425781 105.351562 172.035156 C 105.960938 172.648438 106.507812 173.3125 106.988281 174.03125 C 107.46875 174.75 107.875 175.507812 108.203125 176.304688 C 108.535156 177.105469 108.785156 177.925781 108.953125 178.773438 C 109.121094 179.621094 109.207031 180.476562 109.207031 181.34375 L 109.207031 203.941406 C 109.207031 204.804688 109.121094 205.660156 108.953125 206.507812 C 108.785156 207.355469 108.535156 208.179688 108.203125 208.976562 C 107.875 209.773438 107.46875 210.535156 106.988281 211.253906 C 106.507812 211.96875 105.960938 212.636719 105.351562 213.246094 C 104.742188 213.855469 104.074219 214.402344 103.355469 214.882812 C 102.640625 215.363281 101.878906 215.769531 101.082031 216.097656 C 100.285156 216.429688 99.460938 216.679688 98.613281 216.847656 C 97.765625 217.015625 96.910156 217.101562 96.046875 217.101562 L 73.449219 217.101562 C 72.582031 217.101562 71.726562 217.015625 70.878906 216.847656 C 70.03125 216.679688 69.210938 216.429688 68.410156 216.097656 C 67.613281 215.769531 66.855469 215.363281 66.136719 214.882812 C 65.417969 214.402344 64.753906 213.855469 64.140625 213.246094 C 63.53125 212.636719 62.984375 211.96875 62.503906 211.253906 C 62.023438 210.535156 61.621094 209.773438 61.289062 208.976562 C 60.957031 208.179688 60.707031 207.355469 60.539062 206.507812 C 60.371094 205.660156 60.289062 204.804688 60.289062 203.941406 L 60.289062 181.34375 C 60.289062 180.476562 60.371094 179.621094 60.539062 178.773438 C 60.707031 177.925781 60.957031 177.105469 61.289062 176.304688 C 61.621094 175.507812 62.023438 174.75 62.503906 174.03125 C 62.984375 173.3125 63.53125 172.648438 64.140625 172.035156 C 64.753906 171.425781 65.417969 170.878906 66.136719 170.398438 C 66.855469 169.921875 67.613281 169.515625 68.410156 169.183594 C 69.210938 168.851562 70.03125 168.605469 70.878906 168.433594 C 71.726562 168.265625 72.582031 168.183594 73.449219 168.183594 Z M 73.449219 168.183594 " clip-rule="nonzero"/></clipPath><linearGradient x1="21.351908" gradientTransform="matrix(0.000000000000000013, -0.207283, 0.207283, 0.000000000000000013, 60.287357, 217.100995)" y1="-15.462256" x2="214.648949" gradientUnits="userSpaceOnUse" y2="251.461738" id="c7b5b6a95a"><stop stop-opacity="1" stop-color="rgb(17.765808%, 16.285706%, 13.786316%)" offset="0"/><stop stop-opacity="1" stop-color="rgb(17.579651%, 16.114807%, 13.642883%)" offset="0.015625"/><stop stop-opacity="1" stop-color="rgb(17.208862%, 15.774536%, 13.354492%)" offset="0.03125"/><stop stop-opacity="1" stop-color="rgb(16.838074%, 15.434265%, 13.066101%)" offset="0.046875"/><stop stop-opacity="1" stop-color="rgb(16.467285%, 15.093994%, 12.779236%)" offset="0.0625"/><stop stop-opacity="1" stop-color="rgb(16.096497%, 14.755249%, 12.490845%)" offset="0.078125"/><stop stop-opacity="1" stop-color="rgb(15.725708%, 14.414978%, 12.202454%)" offset="0.09375"/><stop stop-opacity="1" stop-color="rgb(15.354919%, 14.074707%, 11.915588%)" offset="0.109375"/><stop stop-opacity="1" stop-color="rgb(14.982605%, 13.734436%, 11.627197%)" offset="0.125"/><stop stop-opacity="1" stop-color="rgb(14.611816%, 13.394165%, 11.340332%)" offset="0.140625"/><stop stop-opacity="1" stop-color="rgb(14.241028%, 13.053894%, 11.051941%)" offset="0.15625"/><stop stop-opacity="1" stop-color="rgb(13.870239%, 12.715149%, 10.76355%)" offset="0.171875"/><stop stop-opacity="1" stop-color="rgb(13.499451%, 12.374878%, 10.476685%)" offset="0.1875"/><stop stop-opacity="1" stop-color="rgb(13.128662%, 12.034607%, 10.188293%)" offset="0.203125"/><stop stop-opacity="1" stop-color="rgb(12.757874%, 11.694336%, 9.899902%)" offset="0.21875"/><stop stop-opacity="1" stop-color="rgb(12.387085%, 11.354065%, 9.613037%)" offset="0.234375"/><stop stop-opacity="1" stop-color="rgb(12.016296%, 11.013794%, 9.324646%)" offset="0.25"/><stop stop-opacity="1" stop-color="rgb(11.645508%, 10.675049%, 9.036255%)" offset="0.265625"/><stop stop-opacity="1" stop-color="rgb(11.274719%, 10.334778%, 8.74939%)" offset="0.28125"/><stop stop-opacity="1" stop-color="rgb(10.902405%, 9.994507%, 8.460999%)" offset="0.296875"/><stop stop-opacity="1" stop-color="rgb(10.531616%, 9.654236%, 8.172607%)" offset="0.3125"/><stop stop-opacity="1" stop-color="rgb(10.160828%, 9.313965%, 7.885742%)" offset="0.328125"/><stop stop-opacity="1" stop-color="rgb(9.790039%, 8.97522%, 7.597351%)" offset="0.34375"/><stop stop-opacity="1" stop-color="rgb(9.41925%, 8.634949%, 7.310486%)" offset="0.359375"/><stop stop-opacity="1" stop-color="rgb(9.048462%, 8.294678%, 7.022095%)" offset="0.375"/><stop stop-opacity="1" stop-color="rgb(8.677673%, 7.954407%, 6.733704%)" offset="0.390625"/><stop stop-opacity="1" stop-color="rgb(8.306885%, 7.614136%, 6.446838%)" offset="0.40625"/><stop stop-opacity="1" stop-color="rgb(7.936096%, 7.273865%, 6.158447%)" offset="0.420009"/><stop stop-opacity="1" stop-color="rgb(7.751465%, 7.104492%, 6.015015%)" offset="0.421875"/><stop stop-opacity="1" stop-color="rgb(7.565308%, 6.93512%, 5.870056%)" offset="0.4375"/><stop stop-opacity="1" stop-color="rgb(7.194519%, 6.594849%, 5.583191%)" offset="0.453125"/><stop stop-opacity="1" stop-color="rgb(6.82373%, 6.254578%, 5.2948%)" offset="0.46875"/><stop stop-opacity="1" stop-color="rgb(6.451416%, 5.914307%, 5.006409%)" offset="0.484375"/><stop stop-opacity="1" stop-color="rgb(6.080627%, 5.574036%, 4.719543%)" offset="0.5"/><stop stop-opacity="1" stop-color="rgb(5.709839%, 5.233765%, 4.431152%)" offset="0.515625"/><stop stop-opacity="1" stop-color="rgb(5.33905%, 4.89502%, 4.142761%)" offset="0.53125"/><stop stop-opacity="1" stop-color="rgb(4.968262%, 4.554749%, 3.855896%)" offset="0.546875"/><stop stop-opacity="1" stop-color="rgb(4.597473%, 4.214478%, 3.567505%)" offset="0.5625"/><stop stop-opacity="1" stop-color="rgb(4.226685%, 3.874207%, 3.28064%)" offset="0.578125"/><stop stop-opacity="1" stop-color="rgb(3.855896%, 3.533936%, 2.992249%)" offset="0.579991"/><stop stop-opacity="1" stop-color="rgb(3.671265%, 3.364563%, 2.848816%)" offset="0.59375"/><stop stop-opacity="1" stop-color="rgb(3.485107%, 3.193665%, 2.703857%)" offset="0.609375"/><stop stop-opacity="1" stop-color="rgb(3.114319%, 2.854919%, 2.416992%)" offset="0.625"/><stop stop-opacity="1" stop-color="rgb(2.74353%, 2.514648%, 2.128601%)" offset="0.640625"/><stop stop-opacity="1" stop-color="rgb(2.372742%, 2.174377%, 1.84021%)" offset="0.65625"/><stop stop-opacity="1" stop-color="rgb(2.000427%, 1.834106%, 1.553345%)" offset="0.671875"/><stop stop-opacity="1" stop-color="rgb(1.629639%, 1.493835%, 1.264954%)" offset="0.6875"/><stop stop-opacity="1" stop-color="rgb(1.25885%, 1.15509%, 0.976562%)" offset="0.703125"/><stop stop-opacity="1" stop-color="rgb(0.888062%, 0.814819%, 0.689697%)" offset="0.71875"/><stop stop-opacity="1" stop-color="rgb(0.517273%, 0.474548%, 0.401306%)" offset="0.734375"/><stop stop-opacity="1" stop-color="rgb(0.166321%, 0.152588%, 0.128174%)" offset="0.75"/><stop stop-opacity="1" stop-color="rgb(0%, 0%, 0%)" offset="1"/></linearGradient><clipPath id="f01702121d"><path d="M 68.777344 178.144531 L 77 178.144531 L 77 207.308594 L 68.777344 207.308594 Z M 68.777344 178.144531 " clip-rule="nonzero"/></clipPath><clipPath id="ce1534f789"><path d="M 76 178.144531 L 85 178.144531 L 85 207.308594 L 76 207.308594 Z M 76 178.144531 " clip-rule="nonzero"/></clipPath><clipPath id="1020c52c09"><path d="M 84 178.144531 L 93 178.144531 L 93 207.308594 L 84 207.308594 Z M 84 178.144531 " clip-rule="nonzero"/></clipPath><clipPath id="21ccb0377e"><path d="M 92 178.144531 L 100.761719 178.144531 L 100.761719 207.308594 L 92 207.308594 Z M 92 178.144531 " clip-rule="nonzero"/></clipPath></defs><g fill="#062424" fill-opacity="1"><g transform="translate(122.518657, 203.29604)"><g><path d="M 18.515625 -19.390625 L 18.515625 0 L 14.890625 0 L 14.890625 -8.484375 L 5.78125 -8.484375 L 5.78125 0 L 2.15625 0 L 2.15625 -19.390625 L 5.78125 -19.390625 L 5.78125 -11.046875 L 14.890625 -11.046875 L 14.890625 -19.390625 Z M 18.515625 -19.390625 "/></g></g></g><g fill="#062424" fill-opacity="1"><g transform="translate(142.918335, 203.29604)"><g><path d="M 7.71875 -13.984375 C 8.738281 -13.984375 9.664062 -13.816406 10.5 -13.484375 C 11.34375 -13.148438 12.0625 -12.675781 12.65625 -12.0625 C 13.25 -11.457031 13.707031 -10.71875 14.03125 -9.84375 C 14.351562 -8.96875 14.515625 -7.988281 14.515625 -6.90625 C 14.515625 -5.8125 14.351562 -4.828125 14.03125 -3.953125 C 13.707031 -3.078125 13.25 -2.332031 12.65625 -1.71875 C 12.0625 -1.101562 11.34375 -0.628906 10.5 -0.296875 C 9.664062 0.0351562 8.738281 0.203125 7.71875 0.203125 C 6.695312 0.203125 5.765625 0.0351562 4.921875 -0.296875 C 4.078125 -0.628906 3.359375 -1.101562 2.765625 -1.71875 C 2.171875 -2.332031 1.710938 -3.078125 1.390625 -3.953125 C 1.066406 -4.828125 0.90625 -5.8125 0.90625 -6.90625 C 0.90625 -7.988281 1.066406 -8.96875 1.390625 -9.84375 C 1.710938 -10.71875 2.171875 -11.457031 2.765625 -12.0625 C 3.359375 -12.675781 4.078125 -13.148438 4.921875 -13.484375 C 5.765625 -13.816406 6.695312 -13.984375 7.71875 -13.984375 Z M 7.71875 -2.34375 C 8.863281 -2.34375 9.710938 -2.726562 10.265625 -3.5 C 10.816406 -4.269531 11.09375 -5.394531 11.09375 -6.875 C 11.09375 -8.363281 10.816406 -9.492188 10.265625 -10.265625 C 9.710938 -11.046875 8.863281 -11.4375 7.71875 -11.4375 C 6.5625 -11.4375 5.703125 -11.046875 5.140625 -10.265625 C 4.585938 -9.484375 4.3125 -8.351562 4.3125 -6.875 C 4.3125 -5.40625 4.585938 -4.28125 5.140625 -3.5 C 5.703125 -2.726562 6.5625 -2.34375 7.71875 -2.34375 Z M 7.71875 -2.34375 "/></g></g></g><g fill="#062424" fill-opacity="1"><g transform="translate(158.060459, 203.29604)"><g><path d="M 1.640625 0 L 1.640625 -13.765625 L 3.65625 -13.765625 C 4.09375 -13.765625 4.375 -13.5625 4.5 -13.15625 L 4.71875 -12.140625 C 4.957031 -12.410156 5.207031 -12.65625 5.46875 -12.875 C 5.738281 -13.101562 6.023438 -13.296875 6.328125 -13.453125 C 6.628906 -13.617188 6.953125 -13.75 7.296875 -13.84375 C 7.640625 -13.9375 8.015625 -13.984375 8.421875 -13.984375 C 9.285156 -13.984375 10 -13.742188 10.5625 -13.265625 C 11.125 -12.796875 11.539062 -12.175781 11.8125 -11.40625 C 12.03125 -11.863281 12.300781 -12.253906 12.625 -12.578125 C 12.945312 -12.898438 13.300781 -13.164062 13.6875 -13.375 C 14.070312 -13.582031 14.476562 -13.734375 14.90625 -13.828125 C 15.34375 -13.929688 15.78125 -13.984375 16.21875 -13.984375 C 16.976562 -13.984375 17.648438 -13.863281 18.234375 -13.625 C 18.828125 -13.394531 19.320312 -13.054688 19.71875 -12.609375 C 20.125 -12.160156 20.429688 -11.613281 20.640625 -10.96875 C 20.859375 -10.320312 20.96875 -9.585938 20.96875 -8.765625 L 20.96875 0 L 17.65625 0 L 17.65625 -8.765625 C 17.65625 -9.640625 17.460938 -10.296875 17.078125 -10.734375 C 16.691406 -11.179688 16.128906 -11.40625 15.390625 -11.40625 C 15.046875 -11.40625 14.726562 -11.34375 14.4375 -11.21875 C 14.144531 -11.101562 13.890625 -10.9375 13.671875 -10.71875 C 13.453125 -10.5 13.28125 -10.222656 13.15625 -9.890625 C 13.03125 -9.566406 12.96875 -9.191406 12.96875 -8.765625 L 12.96875 0 L 9.640625 0 L 9.640625 -8.765625 C 9.640625 -9.679688 9.453125 -10.347656 9.078125 -10.765625 C 8.710938 -11.191406 8.171875 -11.40625 7.453125 -11.40625 C 6.972656 -11.40625 6.523438 -11.285156 6.109375 -11.046875 C 5.691406 -10.804688 5.304688 -10.484375 4.953125 -10.078125 L 4.953125 0 Z M 1.640625 0 "/></g></g></g><g fill="#062424" fill-opacity="1"><g transform="translate(180.257364, 203.29604)"><g><path d="M 10.5 -8.46875 C 10.5 -8.894531 10.4375 -9.296875 10.3125 -9.671875 C 10.195312 -10.054688 10.019531 -10.390625 9.78125 -10.671875 C 9.539062 -10.960938 9.234375 -11.191406 8.859375 -11.359375 C 8.484375 -11.523438 8.050781 -11.609375 7.5625 -11.609375 C 6.601562 -11.609375 5.847656 -11.332031 5.296875 -10.78125 C 4.753906 -10.238281 4.40625 -9.46875 4.25 -8.46875 Z M 4.1875 -6.46875 C 4.238281 -5.757812 4.363281 -5.144531 4.5625 -4.625 C 4.757812 -4.113281 5.019531 -3.691406 5.34375 -3.359375 C 5.664062 -3.023438 6.046875 -2.773438 6.484375 -2.609375 C 6.929688 -2.441406 7.421875 -2.359375 7.953125 -2.359375 C 8.492188 -2.359375 8.957031 -2.421875 9.34375 -2.546875 C 9.726562 -2.671875 10.066406 -2.804688 10.359375 -2.953125 C 10.648438 -3.109375 10.90625 -3.25 11.125 -3.375 C 11.34375 -3.5 11.554688 -3.5625 11.765625 -3.5625 C 12.046875 -3.5625 12.25 -3.460938 12.375 -3.265625 L 13.328125 -2.046875 C 12.960938 -1.617188 12.550781 -1.257812 12.09375 -0.96875 C 11.644531 -0.675781 11.171875 -0.441406 10.671875 -0.265625 C 10.171875 -0.0976562 9.664062 0.0195312 9.15625 0.09375 C 8.644531 0.164062 8.144531 0.203125 7.65625 0.203125 C 6.695312 0.203125 5.804688 0.046875 4.984375 -0.265625 C 4.160156 -0.585938 3.445312 -1.054688 2.84375 -1.671875 C 2.238281 -2.296875 1.757812 -3.066406 1.40625 -3.984375 C 1.0625 -4.898438 0.890625 -5.960938 0.890625 -7.171875 C 0.890625 -8.109375 1.039062 -8.988281 1.34375 -9.8125 C 1.644531 -10.644531 2.078125 -11.367188 2.640625 -11.984375 C 3.210938 -12.597656 3.90625 -13.082031 4.71875 -13.4375 C 5.539062 -13.800781 6.46875 -13.984375 7.5 -13.984375 C 8.363281 -13.984375 9.160156 -13.84375 9.890625 -13.5625 C 10.628906 -13.28125 11.257812 -12.875 11.78125 -12.34375 C 12.3125 -11.8125 12.726562 -11.160156 13.03125 -10.390625 C 13.332031 -9.617188 13.484375 -8.734375 13.484375 -7.734375 C 13.484375 -7.234375 13.425781 -6.894531 13.3125 -6.71875 C 13.207031 -6.550781 13.003906 -6.46875 12.703125 -6.46875 Z M 4.1875 -6.46875 "/></g></g></g><g fill="#062424" fill-opacity="1"><g transform="translate(194.313111, 203.29604)"><g><path d="M 1.640625 0 L 1.640625 -13.765625 L 3.65625 -13.765625 C 4.09375 -13.765625 4.375 -13.5625 4.5 -13.15625 L 4.71875 -12.140625 C 4.957031 -12.410156 5.207031 -12.65625 5.46875 -12.875 C 5.738281 -13.101562 6.023438 -13.296875 6.328125 -13.453125 C 6.628906 -13.617188 6.953125 -13.75 7.296875 -13.84375 C 7.640625 -13.9375 8.015625 -13.984375 8.421875 -13.984375 C 9.285156 -13.984375 10 -13.742188 10.5625 -13.265625 C 11.125 -12.796875 11.539062 -12.175781 11.8125 -11.40625 C 12.03125 -11.863281 12.300781 -12.253906 12.625 -12.578125 C 12.945312 -12.898438 13.300781 -13.164062 13.6875 -13.375 C 14.070312 -13.582031 14.476562 -13.734375 14.90625 -13.828125 C 15.34375 -13.929688 15.78125 -13.984375 16.21875 -13.984375 C 16.976562 -13.984375 17.648438 -13.863281 18.234375 -13.625 C 18.828125 -13.394531 19.320312 -13.054688 19.71875 -12.609375 C 20.125 -12.160156 20.429688 -11.613281 20.640625 -10.96875 C 20.859375 -10.320312 20.96875 -9.585938 20.96875 -8.765625 L 20.96875 0 L 17.65625 0 L 17.65625 -8.765625 C 17.65625 -9.640625 17.460938 -10.296875 17.078125 -10.734375 C 16.691406 -11.179688 16.128906 -11.40625 15.390625 -11.40625 C 15.046875 -11.40625 14.726562 -11.34375 14.4375 -11.21875 C 14.144531 -11.101562 13.890625 -10.9375 13.671875 -10.71875 C 13.453125 -10.5 13.28125 -10.222656 13.15625 -9.890625 C 13.03125 -9.566406 12.96875 -9.191406 12.96875 -8.765625 L 12.96875 0 L 9.640625 0 L 9.640625 -8.765625 C 9.640625 -9.679688 9.453125 -10.347656 9.078125 -10.765625 C 8.710938 -11.191406 8.171875 -11.40625 7.453125 -11.40625 C 6.972656 -11.40625 6.523438 -11.285156 6.109375 -11.046875 C 5.691406 -10.804688 5.304688 -10.484375 4.953125 -10.078125 L 4.953125 0 Z M 1.640625 0 "/></g></g></g><g fill="#062424" fill-opacity="1"><g transform="translate(216.510013, 203.29604)"><g><path d="M 8.90625 -5.875 C 7.945312 -5.832031 7.140625 -5.75 6.484375 -5.625 C 5.835938 -5.507812 5.316406 -5.351562 4.921875 -5.15625 C 4.523438 -4.96875 4.242188 -4.75 4.078125 -4.5 C 3.910156 -4.25 3.828125 -3.976562 3.828125 -3.6875 C 3.828125 -3.101562 4 -2.6875 4.34375 -2.4375 C 4.6875 -2.1875 5.132812 -2.0625 5.6875 -2.0625 C 6.363281 -2.0625 6.953125 -2.179688 7.453125 -2.421875 C 7.953125 -2.671875 8.4375 -3.050781 8.90625 -3.5625 Z M 1.3125 -11.84375 C 2.894531 -13.289062 4.800781 -14.015625 7.03125 -14.015625 C 7.832031 -14.015625 8.550781 -13.878906 9.1875 -13.609375 C 9.820312 -13.347656 10.359375 -12.984375 10.796875 -12.515625 C 11.234375 -12.046875 11.566406 -11.484375 11.796875 -10.828125 C 12.023438 -10.179688 12.140625 -9.46875 12.140625 -8.6875 L 12.140625 0 L 10.640625 0 C 10.328125 0 10.082031 -0.046875 9.90625 -0.140625 C 9.738281 -0.234375 9.609375 -0.425781 9.515625 -0.71875 L 9.21875 -1.703125 C 8.863281 -1.390625 8.519531 -1.113281 8.1875 -0.875 C 7.863281 -0.632812 7.519531 -0.4375 7.15625 -0.28125 C 6.800781 -0.125 6.421875 -0.00390625 6.015625 0.078125 C 5.609375 0.171875 5.160156 0.21875 4.671875 0.21875 C 4.085938 0.21875 3.550781 0.140625 3.0625 -0.015625 C 2.570312 -0.171875 2.144531 -0.40625 1.78125 -0.71875 C 1.425781 -1.03125 1.148438 -1.421875 0.953125 -1.890625 C 0.753906 -2.359375 0.65625 -2.898438 0.65625 -3.515625 C 0.65625 -3.859375 0.710938 -4.203125 0.828125 -4.546875 C 0.941406 -4.898438 1.128906 -5.234375 1.390625 -5.546875 C 1.660156 -5.859375 2.003906 -6.148438 2.421875 -6.421875 C 2.847656 -6.703125 3.363281 -6.941406 3.96875 -7.140625 C 4.582031 -7.347656 5.296875 -7.515625 6.109375 -7.640625 C 6.929688 -7.773438 7.863281 -7.859375 8.90625 -7.890625 L 8.90625 -8.6875 C 8.90625 -9.613281 8.707031 -10.296875 8.3125 -10.734375 C 7.914062 -11.179688 7.347656 -11.40625 6.609375 -11.40625 C 6.078125 -11.40625 5.632812 -11.34375 5.28125 -11.21875 C 4.925781 -11.09375 4.613281 -10.953125 4.34375 -10.796875 C 4.070312 -10.640625 3.828125 -10.5 3.609375 -10.375 C 3.390625 -10.25 3.148438 -10.1875 2.890625 -10.1875 C 2.648438 -10.1875 2.445312 -10.242188 2.28125 -10.359375 C 2.125 -10.484375 2 -10.625 1.90625 -10.78125 Z M 1.3125 -11.84375 "/></g></g></g><g fill="#062424" fill-opacity="1"><g transform="translate(229.854916, 203.29604)"><g><path d="M 4.953125 -3.5625 C 5.328125 -3.113281 5.734375 -2.796875 6.171875 -2.609375 C 6.617188 -2.421875 7.101562 -2.328125 7.625 -2.328125 C 8.125 -2.328125 8.570312 -2.421875 8.96875 -2.609375 C 9.375 -2.796875 9.71875 -3.078125 10 -3.453125 C 10.28125 -3.835938 10.492188 -4.320312 10.640625 -4.90625 C 10.796875 -5.5 10.875 -6.191406 10.875 -6.984375 C 10.875 -7.796875 10.804688 -8.476562 10.671875 -9.03125 C 10.546875 -9.59375 10.363281 -10.046875 10.125 -10.390625 C 9.882812 -10.742188 9.59375 -11 9.25 -11.15625 C 8.90625 -11.320312 8.515625 -11.40625 8.078125 -11.40625 C 7.390625 -11.40625 6.800781 -11.257812 6.3125 -10.96875 C 5.832031 -10.675781 5.378906 -10.265625 4.953125 -9.734375 Z M 4.78125 -11.890625 C 5.34375 -12.523438 5.976562 -13.035156 6.6875 -13.421875 C 7.40625 -13.816406 8.25 -14.015625 9.21875 -14.015625 C 9.96875 -14.015625 10.648438 -13.859375 11.265625 -13.546875 C 11.890625 -13.234375 12.425781 -12.78125 12.875 -12.1875 C 13.332031 -11.59375 13.679688 -10.859375 13.921875 -9.984375 C 14.171875 -9.109375 14.296875 -8.109375 14.296875 -6.984375 C 14.296875 -5.960938 14.15625 -5.007812 13.875 -4.125 C 13.601562 -3.25 13.207031 -2.488281 12.6875 -1.84375 C 12.175781 -1.207031 11.554688 -0.707031 10.828125 -0.34375 C 10.097656 0.0195312 9.285156 0.203125 8.390625 0.203125 C 7.617188 0.203125 6.957031 0.0820312 6.40625 -0.15625 C 5.863281 -0.394531 5.378906 -0.722656 4.953125 -1.140625 L 4.953125 4.5 L 1.640625 4.5 L 1.640625 -13.765625 L 3.65625 -13.765625 C 4.09375 -13.765625 4.375 -13.5625 4.5 -13.15625 Z M 4.78125 -11.890625 "/></g></g></g><g fill="#062424" fill-opacity="1"><g transform="translate(254.91384, 200.92342)"><g><path d="M 1.3125 0 L 1.3125 -1.671875 L 2.625 -1.671875 L 2.625 0 Z M 1.3125 0 "/></g></g></g><g fill="#062424" fill-opacity="1"><g transform="translate(259.074892, 200.92342)"><g><path d="M 4.9375 0.21875 C 4.195312 0.21875 3.554688 0.09375 3.015625 -0.15625 C 2.472656 -0.40625 2.050781 -0.757812 1.75 -1.21875 C 1.457031 -1.6875 1.3125 -2.238281 1.3125 -2.875 C 1.3125 -4.132812 1.71875 -5.050781 2.53125 -5.625 C 3.351562 -6.207031 4.695312 -6.53125 6.5625 -6.59375 L 9.171875 -6.6875 L 9.171875 -7.78125 C 9.171875 -8.644531 8.90625 -9.335938 8.375 -9.859375 C 7.851562 -10.390625 7.046875 -10.65625 5.953125 -10.65625 C 5.109375 -10.65625 4.40625 -10.457031 3.84375 -10.0625 C 3.28125 -9.675781 2.9375 -9.070312 2.8125 -8.25 L 1.890625 -8.25 C 1.929688 -8.894531 2.109375 -9.457031 2.421875 -9.9375 C 2.734375 -10.425781 3.1875 -10.804688 3.78125 -11.078125 C 4.375 -11.347656 5.109375 -11.484375 5.984375 -11.484375 C 6.796875 -11.484375 7.5 -11.347656 8.09375 -11.078125 C 8.695312 -10.816406 9.164062 -10.410156 9.5 -9.859375 C 9.84375 -9.316406 10.015625 -8.628906 10.015625 -7.796875 L 10.015625 0 L 9.21875 0 L 9.1875 -2.28125 C 8.707031 -1.34375 8.082031 -0.691406 7.3125 -0.328125 C 6.550781 0.0351562 5.757812 0.21875 4.9375 0.21875 Z M 5.078125 -0.59375 C 5.546875 -0.59375 6.019531 -0.675781 6.5 -0.84375 C 6.976562 -1.007812 7.414062 -1.238281 7.8125 -1.53125 C 8.21875 -1.832031 8.546875 -2.164062 8.796875 -2.53125 C 9.046875 -2.894531 9.171875 -3.265625 9.171875 -3.640625 L 9.171875 -5.84375 L 6.984375 -5.796875 C 5.785156 -5.773438 4.835938 -5.660156 4.140625 -5.453125 C 3.453125 -5.253906 2.957031 -4.945312 2.65625 -4.53125 C 2.351562 -4.125 2.203125 -3.59375 2.203125 -2.9375 C 2.203125 -2.195312 2.460938 -1.617188 2.984375 -1.203125 C 3.515625 -0.796875 4.210938 -0.59375 5.078125 -0.59375 Z M 5.078125 -0.59375 "/></g></g></g><g fill="#062424" fill-opacity="1"><g transform="translate(271.394529, 200.92342)"><g><path d="M 5.515625 0.21875 C 4.722656 0.21875 4.015625 0.101562 3.390625 -0.125 C 2.773438 -0.363281 2.273438 -0.722656 1.890625 -1.203125 C 1.515625 -1.679688 1.285156 -2.28125 1.203125 -3 L 2.109375 -3 C 2.203125 -2.519531 2.390625 -2.097656 2.671875 -1.734375 C 2.953125 -1.378906 3.328125 -1.101562 3.796875 -0.90625 C 4.273438 -0.707031 4.847656 -0.609375 5.515625 -0.609375 C 6.421875 -0.609375 7.148438 -0.796875 7.703125 -1.171875 C 8.253906 -1.546875 8.53125 -2.117188 8.53125 -2.890625 C 8.53125 -3.421875 8.394531 -3.84375 8.125 -4.15625 C 7.863281 -4.46875 7.472656 -4.695312 6.953125 -4.84375 L 4.28125 -5.59375 C 3.457031 -5.820312 2.804688 -6.144531 2.328125 -6.5625 C 1.847656 -6.988281 1.609375 -7.578125 1.609375 -8.328125 C 1.609375 -8.953125 1.75 -9.5 2.03125 -9.96875 C 2.3125 -10.445312 2.734375 -10.816406 3.296875 -11.078125 C 3.867188 -11.347656 4.59375 -11.484375 5.46875 -11.484375 C 6.53125 -11.484375 7.394531 -11.238281 8.0625 -10.75 C 8.738281 -10.257812 9.097656 -9.507812 9.140625 -8.5 L 8.25 -8.5 C 8.175781 -9.144531 7.90625 -9.664062 7.4375 -10.0625 C 6.976562 -10.457031 6.320312 -10.65625 5.46875 -10.65625 C 4.582031 -10.65625 3.863281 -10.460938 3.3125 -10.078125 C 2.769531 -9.703125 2.5 -9.117188 2.5 -8.328125 C 2.5 -7.816406 2.675781 -7.414062 3.03125 -7.125 C 3.382812 -6.84375 3.878906 -6.613281 4.515625 -6.4375 L 7.1875 -5.703125 C 7.601562 -5.578125 7.953125 -5.421875 8.234375 -5.234375 C 8.515625 -5.046875 8.742188 -4.832031 8.921875 -4.59375 C 9.097656 -4.351562 9.226562 -4.09375 9.3125 -3.8125 C 9.394531 -3.53125 9.4375 -3.238281 9.4375 -2.9375 C 9.4375 -2.3125 9.289062 -1.757812 9 -1.28125 C 8.71875 -0.8125 8.285156 -0.441406 7.703125 -0.171875 C 7.128906 0.0859375 6.398438 0.21875 5.515625 0.21875 Z M 5.515625 0.21875 "/></g></g></g><g fill="#062424" fill-opacity="1"><g transform="translate(282.483296, 200.92342)"><g><path d="M 3.109375 -11.265625 L 3.109375 0 L 2.25 0 L 2.25 -11.265625 Z M 3.1875 -15.71875 L 3.1875 -14.421875 L 2.15625 -14.421875 L 2.15625 -15.71875 Z M 3.1875 -15.71875 "/></g></g></g><g fill="#062424" fill-opacity="1"><g transform="translate(288.049498, 200.92342)"><g><path d="M 4.9375 0.21875 C 4.195312 0.21875 3.554688 0.09375 3.015625 -0.15625 C 2.472656 -0.40625 2.050781 -0.757812 1.75 -1.21875 C 1.457031 -1.6875 1.3125 -2.238281 1.3125 -2.875 C 1.3125 -4.132812 1.71875 -5.050781 2.53125 -5.625 C 3.351562 -6.207031 4.695312 -6.53125 6.5625 -6.59375 L 9.171875 -6.6875 L 9.171875 -7.78125 C 9.171875 -8.644531 8.90625 -9.335938 8.375 -9.859375 C 7.851562 -10.390625 7.046875 -10.65625 5.953125 -10.65625 C 5.109375 -10.65625 4.40625 -10.457031 3.84375 -10.0625 C 3.28125 -9.675781 2.9375 -9.070312 2.8125 -8.25 L 1.890625 -8.25 C 1.929688 -8.894531 2.109375 -9.457031 2.421875 -9.9375 C 2.734375 -10.425781 3.1875 -10.804688 3.78125 -11.078125 C 4.375 -11.347656 5.109375 -11.484375 5.984375 -11.484375 C 6.796875 -11.484375 7.5 -11.347656 8.09375 -11.078125 C 8.695312 -10.816406 9.164062 -10.410156 9.5 -9.859375 C 9.84375 -9.316406 10.015625 -8.628906 10.015625 -7.796875 L 10.015625 0 L 9.21875 0 L 9.1875 -2.28125 C 8.707031 -1.34375 8.082031 -0.691406 7.3125 -0.328125 C 6.550781 0.0351562 5.757812 0.21875 4.9375 0.21875 Z M 5.078125 -0.59375 C 5.546875 -0.59375 6.019531 -0.675781 6.5 -0.84375 C 6.976562 -1.007812 7.414062 -1.238281 7.8125 -1.53125 C 8.21875 -1.832031 8.546875 -2.164062 8.796875 -2.53125 C 9.046875 -2.894531 9.171875 -3.265625 9.171875 -3.640625 L 9.171875 -5.84375 L 6.984375 -5.796875 C 5.785156 -5.773438 4.835938 -5.660156 4.140625 -5.453125 C 3.453125 -5.253906 2.957031 -4.945312 2.65625 -4.53125 C 2.351562 -4.125 2.203125 -3.59375 2.203125 -2.9375 C 2.203125 -2.195312 2.460938 -1.617188 2.984375 -1.203125 C 3.515625 -0.796875 4.210938 -0.59375 5.078125 -0.59375 Z M 5.078125 -0.59375 "/></g></g></g><g clip-path="url(#8eb3696823)"><g clip-path="url(#ef142d25ae)"><path fill="url(#c7b5b6a95a)" d="M 60.289062 217.101562 L 109.207031 217.101562 L 109.207031 168.183594 L 60.289062 168.183594 Z M 60.289062 217.101562 " fill-rule="nonzero"/></g></g><g clip-path="url(#f01702121d)"><path fill="#f0f2f2" d="M 68.835938 207.308594 L 76.792969 197.578125 L 76.792969 178.144531 L 68.800781 187.921875 Z M 68.835938 207.308594 " fill-opacity="1" fill-rule="nonzero"/></g><g clip-path="url(#ce1534f789)"><path fill="#ff1616" d="M 76.792969 178.144531 L 84.769531 187.875 L 84.769531 207.308594 L 76.792969 197.535156 Z M 76.792969 178.144531 " fill-opacity="1" fill-rule="nonzero"/></g><g clip-path="url(#1020c52c09)"><path fill="#f0f2f2" d="M 84.804688 207.308594 L 92.761719 197.578125 L 92.761719 178.144531 L 84.769531 187.921875 Z M 84.804688 207.308594 " fill-opacity="1" fill-rule="nonzero"/></g><g clip-path="url(#21ccb0377e)"><path fill="#ff1616" d="M 92.761719 178.144531 L 100.738281 187.875 L 100.738281 207.308594 L 92.761719 197.535156 Z M 92.761719 178.144531 " fill-opacity="1" fill-rule="nonzero"/></g></svg>